<svg width="533" height="523" viewBox="0 0 533 523" fill="none" xmlns="http://www.w3.org/2000/svg">
<g filter="url(#filter0_d_1_3)">
<path d="M266.5 1.52588e-05C119.552 1.52588e-05 1.43271e-05 111.229 1.43271e-05 247.95C1.43271e-05 295.749 14.6309 342.042 42.3557 382.063C37.1057 442.095 23.0345 486.662 2.60283 507.774C-0.0977022 510.566 -0.772836 514.836 0.932764 518.362C2.45181 521.512 5.5521 523.45 8.88335 523.45C9.29198 523.45 9.7095 523.422 10.127 523.358C13.7248 522.835 97.2991 510.391 157.741 474.338C192.075 488.654 228.639 495.9 266.5 495.9C413.448 495.9 533 384.671 533 247.95C533 111.229 413.448 1.52588e-05 266.5 1.52588e-05Z" fill="#26C56F"/>
<path d="M3.68073 508.817C14.1235 498.026 22.8397 481.36 29.6026 459.965C36.3722 438.549 41.2183 412.286 43.85 382.194L43.8972 381.654L43.5888 381.209C16.0341 341.434 1.50001 295.438 1.50001 247.95C1.50001 112.157 120.277 1.50002 266.5 1.50002C412.723 1.50002 531.5 112.157 531.5 247.95C531.5 383.743 412.723 494.4 266.5 494.4C228.834 494.4 192.466 487.192 158.319 472.953L157.622 472.662L156.973 473.049C96.8134 508.934 13.5109 521.35 9.91104 521.874L9.89875 521.876C9.56572 521.927 9.22519 521.95 8.88335 521.95C6.14104 521.95 3.55847 520.354 2.28386 517.711L2.28311 517.709C0.848772 514.744 1.4223 511.152 3.68073 508.817ZM3.68073 508.817L2.6031 507.774L3.68095 508.817C3.68088 508.817 3.68081 508.817 3.68073 508.817Z" stroke="#2B19F3" stroke-width="3"/>
</g>
<defs>
<filter id="filter0_d_1_3" x="-4.0007" y="1.52588e-05" width="541.001" height="531.45" filterUnits="userSpaceOnUse" color-interpolation-filters="sRGB">
<feFlood flood-opacity="0" result="BackgroundImageFix"/>
<feColorMatrix in="SourceAlpha" type="matrix" values="0 0 0 0 0 0 0 0 0 0 0 0 0 0 0 0 0 0 127 0" result="hardAlpha"/>
<feOffset dy="4"/>
<feGaussianBlur stdDeviation="2"/>
<feComposite in2="hardAlpha" operator="out"/>
<feColorMatrix type="matrix" values="0 0 0 0 0 0 0 0 0 0 0 0 0 0 0 0 0 0 0.25 0"/>
<feBlend mode="normal" in2="BackgroundImageFix" result="effect1_dropShadow_1_3"/>
<feBlend mode="normal" in="SourceGraphic" in2="effect1_dropShadow_1_3" result="shape"/>
</filter>
</defs>
</svg>
